<mxfile host="app.diagrams.net" modified="2022-03-02T02:39:43.964Z" agent="5.0 (Macintosh; Intel Mac OS X 10_15_7) AppleWebKit/537.36 (KHTML, like Gecko) Chrome/92.0.4515.159 Safari/537.36" etag="35c9LtZ5on9fyX4sU_mX" version="16.6.1" type="github" pages="2">
  <diagram id="we0jUryOAztgWfHVz9gr" name="类图">
    <mxGraphModel dx="2920" dy="1511" grid="1" gridSize="10" guides="1" tooltips="1" connect="1" arrows="1" fold="1" page="0" pageScale="1" pageWidth="827" pageHeight="1169" math="0" shadow="0">
      <root>
        <mxCell id="0" />
        <mxCell id="1" parent="0" />
        <mxCell id="94LR02DZ429kzzAhb7ix-1" value="SnapCalculator" style="swimlane;fontStyle=1;align=center;verticalAlign=top;childLayout=stackLayout;horizontal=1;startSize=26;horizontalStack=0;resizeParent=1;resizeParentMax=0;resizeLast=0;collapsible=1;marginBottom=0;rounded=1;sketch=1;fontFamily=Comic Sans MS;fontColor=#46495D;strokeColor=#788AA3;fillColor=#B2C9AB;" vertex="1" parent="1">
          <mxGeometry x="-849" y="-80" width="160" height="216" as="geometry" />
        </mxCell>
        <mxCell id="94LR02DZ429kzzAhb7ix-2" value="- options" style="text;strokeColor=none;fillColor=none;align=left;verticalAlign=top;spacingLeft=4;spacingRight=4;overflow=hidden;rotatable=0;points=[[0,0.5],[1,0.5]];portConstraint=eastwest;rounded=1;sketch=1;fontFamily=Comic Sans MS;fontColor=#46495D;" vertex="1" parent="94LR02DZ429kzzAhb7ix-1">
          <mxGeometry y="26" width="160" height="26" as="geometry" />
        </mxCell>
        <mxCell id="94LR02DZ429kzzAhb7ix-19" value="- snapRefers" style="text;strokeColor=none;fillColor=none;align=left;verticalAlign=top;spacingLeft=4;spacingRight=4;overflow=hidden;rotatable=0;points=[[0,0.5],[1,0.5]];portConstraint=eastwest;rounded=1;sketch=1;fontFamily=Comic Sans MS;fontColor=#46495D;" vertex="1" parent="94LR02DZ429kzzAhb7ix-1">
          <mxGeometry y="52" width="160" height="26" as="geometry" />
        </mxCell>
        <mxCell id="94LR02DZ429kzzAhb7ix-3" value="" style="line;strokeWidth=1;fillColor=none;align=left;verticalAlign=middle;spacingTop=-1;spacingLeft=3;spacingRight=3;rotatable=0;labelPosition=right;points=[];portConstraint=eastwest;rounded=1;sketch=1;fontFamily=Comic Sans MS;fontColor=#46495D;" vertex="1" parent="94LR02DZ429kzzAhb7ix-1">
          <mxGeometry y="78" width="160" height="8" as="geometry" />
        </mxCell>
        <mxCell id="94LR02DZ429kzzAhb7ix-18" value="+ addRefer(...snapRefer)" style="text;strokeColor=none;fillColor=none;align=left;verticalAlign=top;spacingLeft=4;spacingRight=4;overflow=hidden;rotatable=0;points=[[0,0.5],[1,0.5]];portConstraint=eastwest;rounded=1;sketch=1;fontFamily=Comic Sans MS;fontColor=#46495D;" vertex="1" parent="94LR02DZ429kzzAhb7ix-1">
          <mxGeometry y="86" width="160" height="26" as="geometry" />
        </mxCell>
        <mxCell id="94LR02DZ429kzzAhb7ix-20" value="+ setRefers(snapRefers)" style="text;strokeColor=none;fillColor=none;align=left;verticalAlign=top;spacingLeft=4;spacingRight=4;overflow=hidden;rotatable=0;points=[[0,0.5],[1,0.5]];portConstraint=eastwest;rounded=1;sketch=1;fontFamily=Comic Sans MS;fontColor=#46495D;" vertex="1" parent="94LR02DZ429kzzAhb7ix-1">
          <mxGeometry y="112" width="160" height="26" as="geometry" />
        </mxCell>
        <mxCell id="94LR02DZ429kzzAhb7ix-138" value="+ getRefers()" style="text;strokeColor=none;fillColor=none;align=left;verticalAlign=top;spacingLeft=4;spacingRight=4;overflow=hidden;rotatable=0;points=[[0,0.5],[1,0.5]];portConstraint=eastwest;rounded=1;sketch=1;fontFamily=Comic Sans MS;fontColor=#46495D;" vertex="1" parent="94LR02DZ429kzzAhb7ix-1">
          <mxGeometry y="138" width="160" height="26" as="geometry" />
        </mxCell>
        <mxCell id="94LR02DZ429kzzAhb7ix-4" value="+ snap(snappingVec)" style="text;strokeColor=none;fillColor=none;align=left;verticalAlign=top;spacingLeft=4;spacingRight=4;overflow=hidden;rotatable=0;points=[[0,0.5],[1,0.5]];portConstraint=eastwest;rounded=1;sketch=1;fontFamily=Comic Sans MS;fontColor=#46495D;" vertex="1" parent="94LR02DZ429kzzAhb7ix-1">
          <mxGeometry y="164" width="160" height="26" as="geometry" />
        </mxCell>
        <mxCell id="94LR02DZ429kzzAhb7ix-126" value="+ clear()" style="text;strokeColor=none;fillColor=none;align=left;verticalAlign=top;spacingLeft=4;spacingRight=4;overflow=hidden;rotatable=0;points=[[0,0.5],[1,0.5]];portConstraint=eastwest;rounded=1;sketch=1;fontFamily=Comic Sans MS;fontColor=#46495D;" vertex="1" parent="94LR02DZ429kzzAhb7ix-1">
          <mxGeometry y="190" width="160" height="26" as="geometry" />
        </mxCell>
        <mxCell id="94LR02DZ429kzzAhb7ix-5" value="SnapRenderer" style="swimlane;fontStyle=1;align=center;verticalAlign=top;childLayout=stackLayout;horizontal=1;startSize=26;horizontalStack=0;resizeParent=1;resizeParentMax=0;resizeLast=0;collapsible=1;marginBottom=0;rounded=1;sketch=1;fontFamily=Comic Sans MS;fontColor=#46495D;strokeColor=#788AA3;fillColor=#B2C9AB;" vertex="1" parent="1">
          <mxGeometry x="-460" y="-2" width="160" height="138" as="geometry" />
        </mxCell>
        <mxCell id="94LR02DZ429kzzAhb7ix-6" value="- editor: Editor" style="text;strokeColor=none;fillColor=none;align=left;verticalAlign=top;spacingLeft=4;spacingRight=4;overflow=hidden;rotatable=0;points=[[0,0.5],[1,0.5]];portConstraint=eastwest;rounded=1;sketch=1;fontFamily=Comic Sans MS;fontColor=#46495D;" vertex="1" parent="94LR02DZ429kzzAhb7ix-5">
          <mxGeometry y="26" width="160" height="26" as="geometry" />
        </mxCell>
        <mxCell id="94LR02DZ429kzzAhb7ix-7" value="" style="line;strokeWidth=1;fillColor=none;align=left;verticalAlign=middle;spacingTop=-1;spacingLeft=3;spacingRight=3;rotatable=0;labelPosition=right;points=[];portConstraint=eastwest;rounded=1;sketch=1;fontFamily=Comic Sans MS;fontColor=#46495D;" vertex="1" parent="94LR02DZ429kzzAhb7ix-5">
          <mxGeometry y="52" width="160" height="8" as="geometry" />
        </mxCell>
        <mxCell id="94LR02DZ429kzzAhb7ix-127" value="+ render(snapList)" style="text;strokeColor=none;fillColor=none;align=left;verticalAlign=top;spacingLeft=4;spacingRight=4;overflow=hidden;rotatable=0;points=[[0,0.5],[1,0.5]];portConstraint=eastwest;rounded=1;sketch=1;fontFamily=Comic Sans MS;fontColor=#46495D;" vertex="1" parent="94LR02DZ429kzzAhb7ix-5">
          <mxGeometry y="60" width="160" height="26" as="geometry" />
        </mxCell>
        <mxCell id="94LR02DZ429kzzAhb7ix-8" value="+ clear()" style="text;strokeColor=none;fillColor=none;align=left;verticalAlign=top;spacingLeft=4;spacingRight=4;overflow=hidden;rotatable=0;points=[[0,0.5],[1,0.5]];portConstraint=eastwest;rounded=1;sketch=1;fontFamily=Comic Sans MS;fontColor=#46495D;" vertex="1" parent="94LR02DZ429kzzAhb7ix-5">
          <mxGeometry y="86" width="160" height="26" as="geometry" />
        </mxCell>
        <mxCell id="94LR02DZ429kzzAhb7ix-128" value="+ dispose()" style="text;strokeColor=none;fillColor=none;align=left;verticalAlign=top;spacingLeft=4;spacingRight=4;overflow=hidden;rotatable=0;points=[[0,0.5],[1,0.5]];portConstraint=eastwest;rounded=1;sketch=1;fontFamily=Comic Sans MS;fontColor=#46495D;" vertex="1" parent="94LR02DZ429kzzAhb7ix-5">
          <mxGeometry y="112" width="160" height="26" as="geometry" />
        </mxCell>
        <mxCell id="94LR02DZ429kzzAhb7ix-9" value="SnapRefer" style="swimlane;fontStyle=1;align=center;verticalAlign=top;childLayout=stackLayout;horizontal=1;startSize=26;horizontalStack=0;resizeParent=1;resizeParentMax=0;resizeLast=0;collapsible=1;marginBottom=0;rounded=1;sketch=1;fontFamily=Comic Sans MS;fontColor=#46495D;strokeColor=#788AA3;fillColor=#B2C9AB;" vertex="1" parent="1">
          <mxGeometry x="-849" y="431" width="160" height="138" as="geometry" />
        </mxCell>
        <mxCell id="94LR02DZ429kzzAhb7ix-10" value="+ id: string" style="text;strokeColor=none;fillColor=none;align=left;verticalAlign=top;spacingLeft=4;spacingRight=4;overflow=hidden;rotatable=0;points=[[0,0.5],[1,0.5]];portConstraint=eastwest;rounded=1;sketch=1;fontFamily=Comic Sans MS;fontColor=#46495D;" vertex="1" parent="94LR02DZ429kzzAhb7ix-9">
          <mxGeometry y="26" width="160" height="26" as="geometry" />
        </mxCell>
        <mxCell id="94LR02DZ429kzzAhb7ix-29" value="+ type: point | segment" style="text;strokeColor=none;fillColor=none;align=left;verticalAlign=top;spacingLeft=4;spacingRight=4;overflow=hidden;rotatable=0;points=[[0,0.5],[1,0.5]];portConstraint=eastwest;rounded=1;sketch=1;fontFamily=Comic Sans MS;fontColor=#46495D;" vertex="1" parent="94LR02DZ429kzzAhb7ix-9">
          <mxGeometry y="52" width="160" height="26" as="geometry" />
        </mxCell>
        <mxCell id="94LR02DZ429kzzAhb7ix-116" value="+ coords: number[][]" style="text;strokeColor=none;fillColor=none;align=left;verticalAlign=top;spacingLeft=4;spacingRight=4;overflow=hidden;rotatable=0;points=[[0,0.5],[1,0.5]];portConstraint=eastwest;rounded=1;sketch=1;fontFamily=Comic Sans MS;fontColor=#46495D;" vertex="1" parent="94LR02DZ429kzzAhb7ix-9">
          <mxGeometry y="78" width="160" height="26" as="geometry" />
        </mxCell>
        <mxCell id="94LR02DZ429kzzAhb7ix-11" value="" style="line;strokeWidth=1;fillColor=none;align=left;verticalAlign=middle;spacingTop=-1;spacingLeft=3;spacingRight=3;rotatable=0;labelPosition=right;points=[];portConstraint=eastwest;rounded=1;sketch=1;fontFamily=Comic Sans MS;fontColor=#46495D;" vertex="1" parent="94LR02DZ429kzzAhb7ix-9">
          <mxGeometry y="104" width="160" height="8" as="geometry" />
        </mxCell>
        <mxCell id="94LR02DZ429kzzAhb7ix-12" value="+ " style="text;strokeColor=none;fillColor=none;align=left;verticalAlign=top;spacingLeft=4;spacingRight=4;overflow=hidden;rotatable=0;points=[[0,0.5],[1,0.5]];portConstraint=eastwest;rounded=1;sketch=1;fontFamily=Comic Sans MS;fontColor=#46495D;" vertex="1" parent="94LR02DZ429kzzAhb7ix-9">
          <mxGeometry y="112" width="160" height="26" as="geometry" />
        </mxCell>
        <mxCell id="94LR02DZ429kzzAhb7ix-13" value="SnapResult" style="swimlane;fontStyle=1;align=center;verticalAlign=top;childLayout=stackLayout;horizontal=1;startSize=26;horizontalStack=0;resizeParent=1;resizeParentMax=0;resizeLast=0;collapsible=1;marginBottom=0;rounded=1;sketch=1;fontFamily=Comic Sans MS;fontColor=#46495D;strokeColor=#788AA3;fillColor=#B2C9AB;" vertex="1" parent="1">
          <mxGeometry x="-210" y="431" width="160" height="138" as="geometry" />
        </mxCell>
        <mxCell id="94LR02DZ429kzzAhb7ix-28" value="+ refs: string[]" style="text;strokeColor=none;fillColor=none;align=left;verticalAlign=top;spacingLeft=4;spacingRight=4;overflow=hidden;rotatable=0;points=[[0,0.5],[1,0.5]];portConstraint=eastwest;rounded=1;sketch=1;fontFamily=Comic Sans MS;fontColor=#46495D;" vertex="1" parent="94LR02DZ429kzzAhb7ix-13">
          <mxGeometry y="26" width="160" height="26" as="geometry" />
        </mxCell>
        <mxCell id="94LR02DZ429kzzAhb7ix-14" value="+ snapList: SnapItem[]" style="text;strokeColor=none;fillColor=none;align=left;verticalAlign=top;spacingLeft=4;spacingRight=4;overflow=hidden;rotatable=0;points=[[0,0.5],[1,0.5]];portConstraint=eastwest;rounded=1;sketch=1;fontFamily=Comic Sans MS;fontColor=#46495D;" vertex="1" parent="94LR02DZ429kzzAhb7ix-13">
          <mxGeometry y="52" width="160" height="26" as="geometry" />
        </mxCell>
        <mxCell id="94LR02DZ429kzzAhb7ix-121" value="+ vector: Vector3" style="text;strokeColor=none;fillColor=none;align=left;verticalAlign=top;spacingLeft=4;spacingRight=4;overflow=hidden;rotatable=0;points=[[0,0.5],[1,0.5]];portConstraint=eastwest;rounded=1;sketch=1;fontFamily=Comic Sans MS;fontColor=#46495D;" vertex="1" parent="94LR02DZ429kzzAhb7ix-13">
          <mxGeometry y="78" width="160" height="26" as="geometry" />
        </mxCell>
        <mxCell id="94LR02DZ429kzzAhb7ix-15" value="" style="line;strokeWidth=1;fillColor=none;align=left;verticalAlign=middle;spacingTop=-1;spacingLeft=3;spacingRight=3;rotatable=0;labelPosition=right;points=[];portConstraint=eastwest;rounded=1;sketch=1;fontFamily=Comic Sans MS;fontColor=#46495D;" vertex="1" parent="94LR02DZ429kzzAhb7ix-13">
          <mxGeometry y="104" width="160" height="8" as="geometry" />
        </mxCell>
        <mxCell id="94LR02DZ429kzzAhb7ix-16" value="+ " style="text;strokeColor=none;fillColor=none;align=left;verticalAlign=top;spacingLeft=4;spacingRight=4;overflow=hidden;rotatable=0;points=[[0,0.5],[1,0.5]];portConstraint=eastwest;rounded=1;sketch=1;fontFamily=Comic Sans MS;fontColor=#46495D;" vertex="1" parent="94LR02DZ429kzzAhb7ix-13">
          <mxGeometry y="112" width="160" height="26" as="geometry" />
        </mxCell>
        <mxCell id="94LR02DZ429kzzAhb7ix-21" value="SnapCalculatorOptions" style="swimlane;fontStyle=1;align=center;verticalAlign=top;childLayout=stackLayout;horizontal=1;startSize=26;horizontalStack=0;resizeParent=1;resizeParentMax=0;resizeLast=0;collapsible=1;marginBottom=0;rounded=1;sketch=1;fontFamily=Comic Sans MS;fontColor=#46495D;strokeColor=#788AA3;fillColor=#B2C9AB;" vertex="1" parent="1">
          <mxGeometry x="-650" y="58" width="160" height="78" as="geometry" />
        </mxCell>
        <mxCell id="94LR02DZ429kzzAhb7ix-22" value="+ disThreshold" style="text;strokeColor=none;fillColor=none;align=left;verticalAlign=top;spacingLeft=4;spacingRight=4;overflow=hidden;rotatable=0;points=[[0,0.5],[1,0.5]];portConstraint=eastwest;rounded=1;sketch=1;fontFamily=Comic Sans MS;fontColor=#46495D;" vertex="1" parent="94LR02DZ429kzzAhb7ix-21">
          <mxGeometry y="26" width="160" height="26" as="geometry" />
        </mxCell>
        <mxCell id="94LR02DZ429kzzAhb7ix-23" value="+ degThreshold" style="text;strokeColor=none;fillColor=none;align=left;verticalAlign=top;spacingLeft=4;spacingRight=4;overflow=hidden;rotatable=0;points=[[0,0.5],[1,0.5]];portConstraint=eastwest;rounded=1;sketch=1;fontFamily=Comic Sans MS;fontColor=#46495D;" vertex="1" parent="94LR02DZ429kzzAhb7ix-21">
          <mxGeometry y="52" width="160" height="26" as="geometry" />
        </mxCell>
        <mxCell id="94LR02DZ429kzzAhb7ix-24" value="ISnapValidator" style="swimlane;fontStyle=1;align=center;verticalAlign=top;childLayout=stackLayout;horizontal=1;startSize=26;horizontalStack=0;resizeParent=1;resizeParentMax=0;resizeLast=0;collapsible=1;marginBottom=0;rounded=1;sketch=1;fontFamily=Comic Sans MS;fontColor=#46495D;strokeColor=#788AA3;fillColor=#B2C9AB;" vertex="1" parent="1">
          <mxGeometry x="-849" y="310" width="160" height="52" as="geometry" />
        </mxCell>
        <mxCell id="94LR02DZ429kzzAhb7ix-26" value="+ validate(snapRefers)" style="text;strokeColor=none;fillColor=none;align=left;verticalAlign=top;spacingLeft=4;spacingRight=4;overflow=hidden;rotatable=0;points=[[0,0.5],[1,0.5]];portConstraint=eastwest;rounded=1;sketch=1;fontFamily=Comic Sans MS;fontColor=#46495D;" vertex="1" parent="94LR02DZ429kzzAhb7ix-24">
          <mxGeometry y="26" width="160" height="26" as="geometry" />
        </mxCell>
        <mxCell id="94LR02DZ429kzzAhb7ix-106" value="SnapItem" style="swimlane;fontStyle=1;align=center;verticalAlign=top;childLayout=stackLayout;horizontal=1;startSize=26;horizontalStack=0;resizeParent=1;resizeParentMax=0;resizeLast=0;collapsible=1;marginBottom=0;rounded=1;sketch=1;fontFamily=Comic Sans MS;fontColor=#46495D;strokeColor=#788AA3;fillColor=#B2C9AB;" vertex="1" parent="1">
          <mxGeometry x="-430" y="431" width="160" height="216" as="geometry" />
        </mxCell>
        <mxCell id="94LR02DZ429kzzAhb7ix-107" value="+ id: string" style="text;strokeColor=none;fillColor=none;align=left;verticalAlign=top;spacingLeft=4;spacingRight=4;overflow=hidden;rotatable=0;points=[[0,0.5],[1,0.5]];portConstraint=eastwest;rounded=1;sketch=1;fontFamily=Comic Sans MS;fontColor=#46495D;" vertex="1" parent="94LR02DZ429kzzAhb7ix-106">
          <mxGeometry y="26" width="160" height="26" as="geometry" />
        </mxCell>
        <mxCell id="94LR02DZ429kzzAhb7ix-108" value="+ type: point | segment" style="text;strokeColor=none;fillColor=none;align=left;verticalAlign=top;spacingLeft=4;spacingRight=4;overflow=hidden;rotatable=0;points=[[0,0.5],[1,0.5]];portConstraint=eastwest;rounded=1;sketch=1;fontFamily=Comic Sans MS;fontColor=#46495D;" vertex="1" parent="94LR02DZ429kzzAhb7ix-106">
          <mxGeometry y="52" width="160" height="26" as="geometry" />
        </mxCell>
        <mxCell id="94LR02DZ429kzzAhb7ix-117" value="+ coords: number[][]" style="text;strokeColor=none;fillColor=none;align=left;verticalAlign=top;spacingLeft=4;spacingRight=4;overflow=hidden;rotatable=0;points=[[0,0.5],[1,0.5]];portConstraint=eastwest;rounded=1;sketch=1;fontFamily=Comic Sans MS;fontColor=#46495D;" vertex="1" parent="94LR02DZ429kzzAhb7ix-106">
          <mxGeometry y="78" width="160" height="26" as="geometry" />
        </mxCell>
        <mxCell id="94LR02DZ429kzzAhb7ix-118" value="+ ref?: string" style="text;strokeColor=none;fillColor=none;align=left;verticalAlign=top;spacingLeft=4;spacingRight=4;overflow=hidden;rotatable=0;points=[[0,0.5],[1,0.5]];portConstraint=eastwest;rounded=1;sketch=1;fontFamily=Comic Sans MS;fontColor=#46495D;" vertex="1" parent="94LR02DZ429kzzAhb7ix-106">
          <mxGeometry y="104" width="160" height="26" as="geometry" />
        </mxCell>
        <mxCell id="94LR02DZ429kzzAhb7ix-119" value="+ snappingRef: string" style="text;strokeColor=none;fillColor=none;align=left;verticalAlign=top;spacingLeft=4;spacingRight=4;overflow=hidden;rotatable=0;points=[[0,0.5],[1,0.5]];portConstraint=eastwest;rounded=1;sketch=1;fontFamily=Comic Sans MS;fontColor=#46495D;" vertex="1" parent="94LR02DZ429kzzAhb7ix-106">
          <mxGeometry y="130" width="160" height="26" as="geometry" />
        </mxCell>
        <mxCell id="94LR02DZ429kzzAhb7ix-120" value="+ from?: string" style="text;strokeColor=none;fillColor=none;align=left;verticalAlign=top;spacingLeft=4;spacingRight=4;overflow=hidden;rotatable=0;points=[[0,0.5],[1,0.5]];portConstraint=eastwest;rounded=1;sketch=1;fontFamily=Comic Sans MS;fontColor=#46495D;" vertex="1" parent="94LR02DZ429kzzAhb7ix-106">
          <mxGeometry y="156" width="160" height="26" as="geometry" />
        </mxCell>
        <mxCell id="94LR02DZ429kzzAhb7ix-109" value="" style="line;strokeWidth=1;fillColor=none;align=left;verticalAlign=middle;spacingTop=-1;spacingLeft=3;spacingRight=3;rotatable=0;labelPosition=right;points=[];portConstraint=eastwest;rounded=1;sketch=1;fontFamily=Comic Sans MS;fontColor=#46495D;" vertex="1" parent="94LR02DZ429kzzAhb7ix-106">
          <mxGeometry y="182" width="160" height="8" as="geometry" />
        </mxCell>
        <mxCell id="94LR02DZ429kzzAhb7ix-110" value="+ " style="text;strokeColor=none;fillColor=none;align=left;verticalAlign=top;spacingLeft=4;spacingRight=4;overflow=hidden;rotatable=0;points=[[0,0.5],[1,0.5]];portConstraint=eastwest;rounded=1;sketch=1;fontFamily=Comic Sans MS;fontColor=#46495D;" vertex="1" parent="94LR02DZ429kzzAhb7ix-106">
          <mxGeometry y="190" width="160" height="26" as="geometry" />
        </mxCell>
        <mxCell id="94LR02DZ429kzzAhb7ix-111" value="SnappingVector" style="swimlane;fontStyle=1;align=center;verticalAlign=top;childLayout=stackLayout;horizontal=1;startSize=26;horizontalStack=0;resizeParent=1;resizeParentMax=0;resizeLast=0;collapsible=1;marginBottom=0;rounded=1;sketch=1;fontFamily=Comic Sans MS;fontColor=#46495D;strokeColor=#788AA3;fillColor=#B2C9AB;" vertex="1" parent="1">
          <mxGeometry x="-650" y="431" width="160" height="138" as="geometry" />
        </mxCell>
        <mxCell id="94LR02DZ429kzzAhb7ix-112" value="+ refs: string[]" style="text;strokeColor=none;fillColor=none;align=left;verticalAlign=top;spacingLeft=4;spacingRight=4;overflow=hidden;rotatable=0;points=[[0,0.5],[1,0.5]];portConstraint=eastwest;rounded=1;sketch=1;fontFamily=Comic Sans MS;fontColor=#46495D;" vertex="1" parent="94LR02DZ429kzzAhb7ix-111">
          <mxGeometry y="26" width="160" height="26" as="geometry" />
        </mxCell>
        <mxCell id="94LR02DZ429kzzAhb7ix-113" value="+ vector: Vector3" style="text;strokeColor=none;fillColor=none;align=left;verticalAlign=top;spacingLeft=4;spacingRight=4;overflow=hidden;rotatable=0;points=[[0,0.5],[1,0.5]];portConstraint=eastwest;rounded=1;sketch=1;fontFamily=Comic Sans MS;fontColor=#46495D;" vertex="1" parent="94LR02DZ429kzzAhb7ix-111">
          <mxGeometry y="52" width="160" height="26" as="geometry" />
        </mxCell>
        <mxCell id="94LR02DZ429kzzAhb7ix-137" value="+ include: boolean" style="text;strokeColor=none;fillColor=none;align=left;verticalAlign=top;spacingLeft=4;spacingRight=4;overflow=hidden;rotatable=0;points=[[0,0.5],[1,0.5]];portConstraint=eastwest;rounded=1;sketch=1;fontFamily=Comic Sans MS;fontColor=#46495D;" vertex="1" parent="94LR02DZ429kzzAhb7ix-111">
          <mxGeometry y="78" width="160" height="26" as="geometry" />
        </mxCell>
        <mxCell id="94LR02DZ429kzzAhb7ix-114" value="" style="line;strokeWidth=1;fillColor=none;align=left;verticalAlign=middle;spacingTop=-1;spacingLeft=3;spacingRight=3;rotatable=0;labelPosition=right;points=[];portConstraint=eastwest;rounded=1;sketch=1;fontFamily=Comic Sans MS;fontColor=#46495D;" vertex="1" parent="94LR02DZ429kzzAhb7ix-111">
          <mxGeometry y="104" width="160" height="8" as="geometry" />
        </mxCell>
        <mxCell id="94LR02DZ429kzzAhb7ix-115" value="+ " style="text;strokeColor=none;fillColor=none;align=left;verticalAlign=top;spacingLeft=4;spacingRight=4;overflow=hidden;rotatable=0;points=[[0,0.5],[1,0.5]];portConstraint=eastwest;rounded=1;sketch=1;fontFamily=Comic Sans MS;fontColor=#46495D;" vertex="1" parent="94LR02DZ429kzzAhb7ix-111">
          <mxGeometry y="112" width="160" height="26" as="geometry" />
        </mxCell>
        <mxCell id="94LR02DZ429kzzAhb7ix-124" value="ISnapPostprocessor" style="swimlane;fontStyle=1;align=center;verticalAlign=top;childLayout=stackLayout;horizontal=1;startSize=26;horizontalStack=0;resizeParent=1;resizeParentMax=0;resizeLast=0;collapsible=1;marginBottom=0;rounded=1;sketch=1;fontFamily=Comic Sans MS;fontColor=#46495D;strokeColor=#788AA3;fillColor=#B2C9AB;" vertex="1" parent="1">
          <mxGeometry x="-849" y="190" width="160" height="52" as="geometry" />
        </mxCell>
        <mxCell id="94LR02DZ429kzzAhb7ix-125" value="+ process(snapList)" style="text;strokeColor=none;fillColor=none;align=left;verticalAlign=top;spacingLeft=4;spacingRight=4;overflow=hidden;rotatable=0;points=[[0,0.5],[1,0.5]];portConstraint=eastwest;rounded=1;sketch=1;fontFamily=Comic Sans MS;fontColor=#46495D;" vertex="1" parent="94LR02DZ429kzzAhb7ix-124">
          <mxGeometry y="26" width="160" height="26" as="geometry" />
        </mxCell>
        <mxCell id="94LR02DZ429kzzAhb7ix-139" value="" style="endArrow=none;html=1;rounded=0;" edge="1" parent="1">
          <mxGeometry width="50" height="50" relative="1" as="geometry">
            <mxPoint x="-880" y="400" as="sourcePoint" />
            <mxPoint x="60" y="400" as="targetPoint" />
          </mxGeometry>
        </mxCell>
        <mxCell id="94LR02DZ429kzzAhb7ix-140" value="StartPointValidator" style="swimlane;fontStyle=1;align=center;verticalAlign=top;childLayout=stackLayout;horizontal=1;startSize=26;horizontalStack=0;resizeParent=1;resizeParentMax=0;resizeLast=0;collapsible=1;marginBottom=0;rounded=1;sketch=1;fontFamily=Comic Sans MS;fontColor=#46495D;strokeColor=#788AA3;fillColor=#B2C9AB;" vertex="1" parent="1">
          <mxGeometry x="-650" y="310" width="160" height="52" as="geometry" />
        </mxCell>
        <mxCell id="94LR02DZ429kzzAhb7ix-141" value="+ validate(snapRefers)" style="text;strokeColor=none;fillColor=none;align=left;verticalAlign=top;spacingLeft=4;spacingRight=4;overflow=hidden;rotatable=0;points=[[0,0.5],[1,0.5]];portConstraint=eastwest;rounded=1;sketch=1;fontFamily=Comic Sans MS;fontColor=#46495D;" vertex="1" parent="94LR02DZ429kzzAhb7ix-140">
          <mxGeometry y="26" width="160" height="26" as="geometry" />
        </mxCell>
        <mxCell id="94LR02DZ429kzzAhb7ix-142" value="OrthoValidator" style="swimlane;fontStyle=1;align=center;verticalAlign=top;childLayout=stackLayout;horizontal=1;startSize=26;horizontalStack=0;resizeParent=1;resizeParentMax=0;resizeLast=0;collapsible=1;marginBottom=0;rounded=1;sketch=1;fontFamily=Comic Sans MS;fontColor=#46495D;strokeColor=#788AA3;fillColor=#B2C9AB;" vertex="1" parent="1">
          <mxGeometry x="-430" y="310" width="160" height="52" as="geometry" />
        </mxCell>
        <mxCell id="94LR02DZ429kzzAhb7ix-143" value="+ validate(snapRefers)" style="text;strokeColor=none;fillColor=none;align=left;verticalAlign=top;spacingLeft=4;spacingRight=4;overflow=hidden;rotatable=0;points=[[0,0.5],[1,0.5]];portConstraint=eastwest;rounded=1;sketch=1;fontFamily=Comic Sans MS;fontColor=#46495D;" vertex="1" parent="94LR02DZ429kzzAhb7ix-142">
          <mxGeometry y="26" width="160" height="26" as="geometry" />
        </mxCell>
        <mxCell id="94LR02DZ429kzzAhb7ix-144" value="ExtensionLineValidator" style="swimlane;fontStyle=1;align=center;verticalAlign=top;childLayout=stackLayout;horizontal=1;startSize=26;horizontalStack=0;resizeParent=1;resizeParentMax=0;resizeLast=0;collapsible=1;marginBottom=0;rounded=1;sketch=1;fontFamily=Comic Sans MS;fontColor=#46495D;strokeColor=#788AA3;fillColor=#B2C9AB;" vertex="1" parent="1">
          <mxGeometry x="-210" y="310" width="160" height="52" as="geometry" />
        </mxCell>
        <mxCell id="94LR02DZ429kzzAhb7ix-145" value="+ validate(snapRefers)" style="text;strokeColor=none;fillColor=none;align=left;verticalAlign=top;spacingLeft=4;spacingRight=4;overflow=hidden;rotatable=0;points=[[0,0.5],[1,0.5]];portConstraint=eastwest;rounded=1;sketch=1;fontFamily=Comic Sans MS;fontColor=#46495D;" vertex="1" parent="94LR02DZ429kzzAhb7ix-144">
          <mxGeometry y="26" width="160" height="26" as="geometry" />
        </mxCell>
        <mxCell id="94LR02DZ429kzzAhb7ix-146" value="" style="endArrow=none;html=1;rounded=0;" edge="1" parent="1">
          <mxGeometry width="50" height="50" relative="1" as="geometry">
            <mxPoint x="-880" y="269.9999999999998" as="sourcePoint" />
            <mxPoint x="60" y="270" as="targetPoint" />
          </mxGeometry>
        </mxCell>
        <mxCell id="7ZBwGPU-ZFB1ht_cBcD--1" value="PointPostprocessor" style="swimlane;fontStyle=1;align=center;verticalAlign=top;childLayout=stackLayout;horizontal=1;startSize=26;horizontalStack=0;resizeParent=1;resizeParentMax=0;resizeLast=0;collapsible=1;marginBottom=0;rounded=1;sketch=1;fontFamily=Comic Sans MS;fontColor=#46495D;strokeColor=#788AA3;fillColor=#B2C9AB;" vertex="1" parent="1">
          <mxGeometry x="-670" y="190" width="160" height="52" as="geometry" />
        </mxCell>
        <mxCell id="7ZBwGPU-ZFB1ht_cBcD--2" value="+ process(snapList)" style="text;strokeColor=none;fillColor=none;align=left;verticalAlign=top;spacingLeft=4;spacingRight=4;overflow=hidden;rotatable=0;points=[[0,0.5],[1,0.5]];portConstraint=eastwest;rounded=1;sketch=1;fontFamily=Comic Sans MS;fontColor=#46495D;" vertex="1" parent="7ZBwGPU-ZFB1ht_cBcD--1">
          <mxGeometry y="26" width="160" height="26" as="geometry" />
        </mxCell>
        <mxCell id="7ZBwGPU-ZFB1ht_cBcD--3" value="OrthoPostprocessor" style="swimlane;fontStyle=1;align=center;verticalAlign=top;childLayout=stackLayout;horizontal=1;startSize=26;horizontalStack=0;resizeParent=1;resizeParentMax=0;resizeLast=0;collapsible=1;marginBottom=0;rounded=1;sketch=1;fontFamily=Comic Sans MS;fontColor=#46495D;strokeColor=#788AA3;fillColor=#B2C9AB;" vertex="1" parent="1">
          <mxGeometry x="-490" y="190" width="160" height="52" as="geometry" />
        </mxCell>
        <mxCell id="7ZBwGPU-ZFB1ht_cBcD--4" value="+ process(snapList)" style="text;strokeColor=none;fillColor=none;align=left;verticalAlign=top;spacingLeft=4;spacingRight=4;overflow=hidden;rotatable=0;points=[[0,0.5],[1,0.5]];portConstraint=eastwest;rounded=1;sketch=1;fontFamily=Comic Sans MS;fontColor=#46495D;" vertex="1" parent="7ZBwGPU-ZFB1ht_cBcD--3">
          <mxGeometry y="26" width="160" height="26" as="geometry" />
        </mxCell>
        <mxCell id="7ZBwGPU-ZFB1ht_cBcD--5" value="ExtensionLineProcessor" style="swimlane;fontStyle=1;align=center;verticalAlign=top;childLayout=stackLayout;horizontal=1;startSize=26;horizontalStack=0;resizeParent=1;resizeParentMax=0;resizeLast=0;collapsible=1;marginBottom=0;rounded=1;sketch=1;fontFamily=Comic Sans MS;fontColor=#46495D;strokeColor=#788AA3;fillColor=#B2C9AB;" vertex="1" parent="1">
          <mxGeometry x="-310" y="190" width="160" height="52" as="geometry" />
        </mxCell>
        <mxCell id="7ZBwGPU-ZFB1ht_cBcD--6" value="+ process(snapList)" style="text;strokeColor=none;fillColor=none;align=left;verticalAlign=top;spacingLeft=4;spacingRight=4;overflow=hidden;rotatable=0;points=[[0,0.5],[1,0.5]];portConstraint=eastwest;rounded=1;sketch=1;fontFamily=Comic Sans MS;fontColor=#46495D;" vertex="1" parent="7ZBwGPU-ZFB1ht_cBcD--5">
          <mxGeometry y="26" width="160" height="26" as="geometry" />
        </mxCell>
        <mxCell id="7ZBwGPU-ZFB1ht_cBcD--7" value="SegmentPostprocessor" style="swimlane;fontStyle=1;align=center;verticalAlign=top;childLayout=stackLayout;horizontal=1;startSize=26;horizontalStack=0;resizeParent=1;resizeParentMax=0;resizeLast=0;collapsible=1;marginBottom=0;rounded=1;sketch=1;fontFamily=Comic Sans MS;fontColor=#46495D;strokeColor=#788AA3;fillColor=#B2C9AB;" vertex="1" parent="1">
          <mxGeometry x="-130" y="190" width="160" height="52" as="geometry" />
        </mxCell>
        <mxCell id="7ZBwGPU-ZFB1ht_cBcD--8" value="+ process(snapList)" style="text;strokeColor=none;fillColor=none;align=left;verticalAlign=top;spacingLeft=4;spacingRight=4;overflow=hidden;rotatable=0;points=[[0,0.5],[1,0.5]];portConstraint=eastwest;rounded=1;sketch=1;fontFamily=Comic Sans MS;fontColor=#46495D;" vertex="1" parent="7ZBwGPU-ZFB1ht_cBcD--7">
          <mxGeometry y="26" width="160" height="26" as="geometry" />
        </mxCell>
        <mxCell id="7ZBwGPU-ZFB1ht_cBcD--9" value="" style="endArrow=none;html=1;rounded=0;" edge="1" parent="1">
          <mxGeometry width="50" height="50" relative="1" as="geometry">
            <mxPoint x="-880" y="160" as="sourcePoint" />
            <mxPoint x="50" y="160" as="targetPoint" />
          </mxGeometry>
        </mxCell>
      </root>
    </mxGraphModel>
  </diagram>
  <diagram id="sbfZ2bHYhU_2yZDilWMS" name="流程图">
    <mxGraphModel dx="2703" dy="2146" grid="1" gridSize="10" guides="1" tooltips="1" connect="1" arrows="1" fold="1" page="0" pageScale="1" pageWidth="827" pageHeight="1169" math="0" shadow="0">
      <root>
        <mxCell id="w4QYVPqzio85C-e9bdqR-0" />
        <mxCell id="w4QYVPqzio85C-e9bdqR-1" parent="w4QYVPqzio85C-e9bdqR-0" />
        <mxCell id="J5jmYcz8lxXJGJKZmdvE-0" style="edgeStyle=orthogonalEdgeStyle;rounded=0;orthogonalLoop=1;jettySize=auto;html=1;exitX=0.5;exitY=1;exitDx=0;exitDy=0;exitPerimeter=0;entryX=0.5;entryY=0;entryDx=0;entryDy=0;entryPerimeter=0;" edge="1" parent="w4QYVPqzio85C-e9bdqR-1" source="J5jmYcz8lxXJGJKZmdvE-1" target="J5jmYcz8lxXJGJKZmdvE-8">
          <mxGeometry relative="1" as="geometry" />
        </mxCell>
        <mxCell id="J5jmYcz8lxXJGJKZmdvE-1" value="开始" style="strokeWidth=2;html=1;shape=mxgraph.flowchart.start_1;whiteSpace=wrap;rounded=1;sketch=1;fontFamily=Comic Sans MS;fontColor=#46495D;fillColor=#B2C9AB;" vertex="1" parent="w4QYVPqzio85C-e9bdqR-1">
          <mxGeometry x="585" y="-140" width="100" height="60" as="geometry" />
        </mxCell>
        <mxCell id="J5jmYcz8lxXJGJKZmdvE-2" style="edgeStyle=orthogonalEdgeStyle;rounded=0;orthogonalLoop=1;jettySize=auto;html=1;exitX=0.5;exitY=1;exitDx=0;exitDy=0;" edge="1" parent="w4QYVPqzio85C-e9bdqR-1" source="J5jmYcz8lxXJGJKZmdvE-3" target="J5jmYcz8lxXJGJKZmdvE-25">
          <mxGeometry relative="1" as="geometry" />
        </mxCell>
        <mxCell id="J5jmYcz8lxXJGJKZmdvE-3" value="接入绘制模块" style="rounded=1;whiteSpace=wrap;html=1;absoluteArcSize=1;arcSize=14;strokeWidth=2;sketch=1;fontFamily=Comic Sans MS;fontColor=#46495D;fillColor=#B2C9AB;" vertex="1" parent="w4QYVPqzio85C-e9bdqR-1">
          <mxGeometry x="255" y="176" width="170" height="60" as="geometry" />
        </mxCell>
        <mxCell id="J5jmYcz8lxXJGJKZmdvE-4" style="edgeStyle=orthogonalEdgeStyle;rounded=0;orthogonalLoop=1;jettySize=auto;html=1;exitX=0;exitY=0.5;exitDx=0;exitDy=0;exitPerimeter=0;" edge="1" parent="w4QYVPqzio85C-e9bdqR-1" source="J5jmYcz8lxXJGJKZmdvE-8" target="J5jmYcz8lxXJGJKZmdvE-3">
          <mxGeometry relative="1" as="geometry" />
        </mxCell>
        <mxCell id="J5jmYcz8lxXJGJKZmdvE-5" value="绘制" style="edgeLabel;html=1;align=center;verticalAlign=middle;resizable=0;points=[];" vertex="1" connectable="0" parent="J5jmYcz8lxXJGJKZmdvE-4">
          <mxGeometry x="0.22" y="3" relative="1" as="geometry">
            <mxPoint x="-12" y="47" as="offset" />
          </mxGeometry>
        </mxCell>
        <mxCell id="J5jmYcz8lxXJGJKZmdvE-6" style="edgeStyle=orthogonalEdgeStyle;rounded=0;orthogonalLoop=1;jettySize=auto;html=1;exitX=1;exitY=0.5;exitDx=0;exitDy=0;exitPerimeter=0;entryX=0.5;entryY=0;entryDx=0;entryDy=0;" edge="1" parent="w4QYVPqzio85C-e9bdqR-1" source="J5jmYcz8lxXJGJKZmdvE-8" target="J5jmYcz8lxXJGJKZmdvE-17">
          <mxGeometry relative="1" as="geometry">
            <mxPoint x="625" y="180.00000000000023" as="targetPoint" />
          </mxGeometry>
        </mxCell>
        <mxCell id="J5jmYcz8lxXJGJKZmdvE-7" value="编辑" style="edgeLabel;html=1;align=center;verticalAlign=middle;resizable=0;points=[];" vertex="1" connectable="0" parent="J5jmYcz8lxXJGJKZmdvE-6">
          <mxGeometry x="0.6751" y="3" relative="1" as="geometry">
            <mxPoint as="offset" />
          </mxGeometry>
        </mxCell>
        <mxCell id="J5jmYcz8lxXJGJKZmdvE-8" value="编辑 OR 绘制" style="strokeWidth=2;html=1;shape=mxgraph.flowchart.decision;whiteSpace=wrap;rounded=1;sketch=1;fontFamily=Comic Sans MS;fontColor=#46495D;fillColor=#B2C9AB;" vertex="1" parent="w4QYVPqzio85C-e9bdqR-1">
          <mxGeometry x="570" width="130" height="100" as="geometry" />
        </mxCell>
        <mxCell id="J5jmYcz8lxXJGJKZmdvE-9" style="edgeStyle=orthogonalEdgeStyle;rounded=0;orthogonalLoop=1;jettySize=auto;html=1;exitX=0.5;exitY=1;exitDx=0;exitDy=0;entryX=0.5;entryY=0;entryDx=0;entryDy=0;entryPerimeter=0;" edge="1" parent="w4QYVPqzio85C-e9bdqR-1" source="J5jmYcz8lxXJGJKZmdvE-10" target="J5jmYcz8lxXJGJKZmdvE-15">
          <mxGeometry relative="1" as="geometry" />
        </mxCell>
        <mxCell id="J5jmYcz8lxXJGJKZmdvE-10" value="每完成一个点绘制时，加入对应的 SnapRefer" style="rounded=1;whiteSpace=wrap;html=1;absoluteArcSize=1;arcSize=14;strokeWidth=2;sketch=1;fontFamily=Comic Sans MS;fontColor=#46495D;fillColor=#B2C9AB;" vertex="1" parent="w4QYVPqzio85C-e9bdqR-1">
          <mxGeometry x="470" y="470" width="170" height="60" as="geometry" />
        </mxCell>
        <mxCell id="J5jmYcz8lxXJGJKZmdvE-11" style="edgeStyle=orthogonalEdgeStyle;rounded=0;orthogonalLoop=1;jettySize=auto;html=1;exitX=0.5;exitY=1;exitDx=0;exitDy=0;entryX=0.5;entryY=0;entryDx=0;entryDy=0;" edge="1" parent="w4QYVPqzio85C-e9bdqR-1" source="J5jmYcz8lxXJGJKZmdvE-12" target="J5jmYcz8lxXJGJKZmdvE-14">
          <mxGeometry relative="1" as="geometry" />
        </mxCell>
        <mxCell id="J5jmYcz8lxXJGJKZmdvE-12" value="鼠标移动时，调用 snap 方法获取结果" style="rounded=1;whiteSpace=wrap;html=1;absoluteArcSize=1;arcSize=14;strokeWidth=2;sketch=1;fontFamily=Comic Sans MS;fontColor=#46495D;fillColor=#B2C9AB;" vertex="1" parent="w4QYVPqzio85C-e9bdqR-1">
          <mxGeometry x="30" y="470" width="170" height="60" as="geometry" />
        </mxCell>
        <mxCell id="J5jmYcz8lxXJGJKZmdvE-13" style="edgeStyle=orthogonalEdgeStyle;rounded=0;orthogonalLoop=1;jettySize=auto;html=1;exitX=0.5;exitY=1;exitDx=0;exitDy=0;entryX=0.5;entryY=0;entryDx=0;entryDy=0;entryPerimeter=0;" edge="1" parent="w4QYVPqzio85C-e9bdqR-1" source="J5jmYcz8lxXJGJKZmdvE-14" target="J5jmYcz8lxXJGJKZmdvE-15">
          <mxGeometry relative="1" as="geometry" />
        </mxCell>
        <mxCell id="J5jmYcz8lxXJGJKZmdvE-14" value="如果有结果，调用 renderer 完成 UI 绘制" style="rounded=1;whiteSpace=wrap;html=1;absoluteArcSize=1;arcSize=14;strokeWidth=2;sketch=1;fontFamily=Comic Sans MS;fontColor=#46495D;fillColor=#B2C9AB;" vertex="1" parent="w4QYVPqzio85C-e9bdqR-1">
          <mxGeometry x="30" y="600" width="170" height="60" as="geometry" />
        </mxCell>
        <mxCell id="J5jmYcz8lxXJGJKZmdvE-15" value="完成" style="strokeWidth=2;html=1;shape=mxgraph.flowchart.terminator;whiteSpace=wrap;rounded=1;sketch=1;fontFamily=Comic Sans MS;fontColor=#46495D;fillColor=#B2C9AB;" vertex="1" parent="w4QYVPqzio85C-e9bdqR-1">
          <mxGeometry x="290" y="720" width="100" height="60" as="geometry" />
        </mxCell>
        <mxCell id="J5jmYcz8lxXJGJKZmdvE-16" style="edgeStyle=orthogonalEdgeStyle;rounded=0;orthogonalLoop=1;jettySize=auto;html=1;exitX=0.5;exitY=1;exitDx=0;exitDy=0;entryX=0.5;entryY=0;entryDx=0;entryDy=0;" edge="1" parent="w4QYVPqzio85C-e9bdqR-1" source="J5jmYcz8lxXJGJKZmdvE-17" target="J5jmYcz8lxXJGJKZmdvE-19">
          <mxGeometry relative="1" as="geometry" />
        </mxCell>
        <mxCell id="J5jmYcz8lxXJGJKZmdvE-17" value="将已有的点和线段数据加入 calculator" style="rounded=1;whiteSpace=wrap;html=1;absoluteArcSize=1;arcSize=14;strokeWidth=2;sketch=1;fontFamily=Comic Sans MS;fontColor=#46495D;fillColor=#B2C9AB;" vertex="1" parent="w4QYVPqzio85C-e9bdqR-1">
          <mxGeometry x="990" y="180" width="170" height="60" as="geometry" />
        </mxCell>
        <mxCell id="J5jmYcz8lxXJGJKZmdvE-18" style="edgeStyle=orthogonalEdgeStyle;rounded=0;orthogonalLoop=1;jettySize=auto;html=1;exitX=0.5;exitY=1;exitDx=0;exitDy=0;entryX=0.5;entryY=0;entryDx=0;entryDy=0;entryPerimeter=0;" edge="1" parent="w4QYVPqzio85C-e9bdqR-1" source="J5jmYcz8lxXJGJKZmdvE-19" target="J5jmYcz8lxXJGJKZmdvE-31">
          <mxGeometry relative="1" as="geometry" />
        </mxCell>
        <mxCell id="J5jmYcz8lxXJGJKZmdvE-19" value="接入编辑模块" style="rounded=1;whiteSpace=wrap;html=1;absoluteArcSize=1;arcSize=14;strokeWidth=2;sketch=1;fontFamily=Comic Sans MS;fontColor=#46495D;fillColor=#B2C9AB;" vertex="1" parent="w4QYVPqzio85C-e9bdqR-1">
          <mxGeometry x="990" y="290" width="170" height="60" as="geometry" />
        </mxCell>
        <mxCell id="J5jmYcz8lxXJGJKZmdvE-20" value="" style="edgeStyle=orthogonalEdgeStyle;rounded=0;orthogonalLoop=1;jettySize=auto;html=1;exitX=1;exitY=0.5;exitDx=0;exitDy=0;exitPerimeter=0;entryX=0.5;entryY=0;entryDx=0;entryDy=0;" edge="1" parent="w4QYVPqzio85C-e9bdqR-1" source="J5jmYcz8lxXJGJKZmdvE-25" target="J5jmYcz8lxXJGJKZmdvE-10">
          <mxGeometry relative="1" as="geometry" />
        </mxCell>
        <mxCell id="J5jmYcz8lxXJGJKZmdvE-21" value="点击" style="edgeLabel;html=1;align=center;verticalAlign=middle;resizable=0;points=[];" vertex="1" connectable="0" parent="J5jmYcz8lxXJGJKZmdvE-20">
          <mxGeometry x="0.0326" y="3" relative="1" as="geometry">
            <mxPoint x="9" y="45" as="offset" />
          </mxGeometry>
        </mxCell>
        <mxCell id="J5jmYcz8lxXJGJKZmdvE-22" style="edgeStyle=orthogonalEdgeStyle;rounded=0;orthogonalLoop=1;jettySize=auto;html=1;exitX=0;exitY=0.5;exitDx=0;exitDy=0;exitPerimeter=0;entryX=0.5;entryY=0;entryDx=0;entryDy=0;" edge="1" parent="w4QYVPqzio85C-e9bdqR-1" source="J5jmYcz8lxXJGJKZmdvE-25" target="J5jmYcz8lxXJGJKZmdvE-12">
          <mxGeometry relative="1" as="geometry" />
        </mxCell>
        <mxCell id="J5jmYcz8lxXJGJKZmdvE-23" value="移动" style="edgeLabel;html=1;align=center;verticalAlign=middle;resizable=0;points=[];" vertex="1" connectable="0" parent="J5jmYcz8lxXJGJKZmdvE-22">
          <mxGeometry x="0.045" y="2" relative="1" as="geometry">
            <mxPoint x="-19" y="40" as="offset" />
          </mxGeometry>
        </mxCell>
        <mxCell id="J5jmYcz8lxXJGJKZmdvE-24" style="edgeStyle=orthogonalEdgeStyle;rounded=0;orthogonalLoop=1;jettySize=auto;html=1;exitX=0.5;exitY=1;exitDx=0;exitDy=0;exitPerimeter=0;entryX=0.5;entryY=0;entryDx=0;entryDy=0;" edge="1" parent="w4QYVPqzio85C-e9bdqR-1" source="J5jmYcz8lxXJGJKZmdvE-25" target="J5jmYcz8lxXJGJKZmdvE-40">
          <mxGeometry relative="1" as="geometry" />
        </mxCell>
        <mxCell id="J5jmYcz8lxXJGJKZmdvE-25" value="点击 OR 移动" style="strokeWidth=2;html=1;shape=mxgraph.flowchart.decision;whiteSpace=wrap;rounded=1;sketch=1;fontFamily=Comic Sans MS;fontColor=#46495D;fillColor=#B2C9AB;" vertex="1" parent="w4QYVPqzio85C-e9bdqR-1">
          <mxGeometry x="275" y="296" width="130" height="100" as="geometry" />
        </mxCell>
        <mxCell id="J5jmYcz8lxXJGJKZmdvE-26" style="edgeStyle=orthogonalEdgeStyle;rounded=0;orthogonalLoop=1;jettySize=auto;html=1;exitX=0;exitY=0.5;exitDx=0;exitDy=0;exitPerimeter=0;entryX=0.5;entryY=0;entryDx=0;entryDy=0;" edge="1" parent="w4QYVPqzio85C-e9bdqR-1" source="J5jmYcz8lxXJGJKZmdvE-31" target="J5jmYcz8lxXJGJKZmdvE-33">
          <mxGeometry relative="1" as="geometry" />
        </mxCell>
        <mxCell id="J5jmYcz8lxXJGJKZmdvE-27" value="拖动时" style="edgeLabel;html=1;align=center;verticalAlign=middle;resizable=0;points=[];" vertex="1" connectable="0" parent="J5jmYcz8lxXJGJKZmdvE-26">
          <mxGeometry x="0.2223" y="2" relative="1" as="geometry">
            <mxPoint x="-23" y="48" as="offset" />
          </mxGeometry>
        </mxCell>
        <mxCell id="J5jmYcz8lxXJGJKZmdvE-28" style="edgeStyle=orthogonalEdgeStyle;rounded=0;orthogonalLoop=1;jettySize=auto;html=1;exitX=1;exitY=0.5;exitDx=0;exitDy=0;exitPerimeter=0;entryX=0.5;entryY=0;entryDx=0;entryDy=0;" edge="1" parent="w4QYVPqzio85C-e9bdqR-1" source="J5jmYcz8lxXJGJKZmdvE-31" target="J5jmYcz8lxXJGJKZmdvE-35">
          <mxGeometry relative="1" as="geometry" />
        </mxCell>
        <mxCell id="J5jmYcz8lxXJGJKZmdvE-29" value="拖动完成：松开" style="edgeLabel;html=1;align=center;verticalAlign=middle;resizable=0;points=[];" vertex="1" connectable="0" parent="J5jmYcz8lxXJGJKZmdvE-28">
          <mxGeometry x="0.7465" relative="1" as="geometry">
            <mxPoint as="offset" />
          </mxGeometry>
        </mxCell>
        <mxCell id="J5jmYcz8lxXJGJKZmdvE-30" style="edgeStyle=orthogonalEdgeStyle;rounded=0;orthogonalLoop=1;jettySize=auto;html=1;exitX=0.5;exitY=1;exitDx=0;exitDy=0;exitPerimeter=0;" edge="1" parent="w4QYVPqzio85C-e9bdqR-1" source="J5jmYcz8lxXJGJKZmdvE-31" target="J5jmYcz8lxXJGJKZmdvE-42">
          <mxGeometry relative="1" as="geometry" />
        </mxCell>
        <mxCell id="J5jmYcz8lxXJGJKZmdvE-31" value="拖动 OR 松开" style="strokeWidth=2;html=1;shape=mxgraph.flowchart.decision;whiteSpace=wrap;rounded=1;sketch=1;fontFamily=Comic Sans MS;fontColor=#46495D;fillColor=#B2C9AB;" vertex="1" parent="w4QYVPqzio85C-e9bdqR-1">
          <mxGeometry x="1010" y="403.25" width="130" height="100" as="geometry" />
        </mxCell>
        <mxCell id="J5jmYcz8lxXJGJKZmdvE-32" style="edgeStyle=orthogonalEdgeStyle;rounded=0;orthogonalLoop=1;jettySize=auto;html=1;exitX=0.5;exitY=1;exitDx=0;exitDy=0;entryX=0.5;entryY=0;entryDx=0;entryDy=0;" edge="1" parent="w4QYVPqzio85C-e9bdqR-1" source="J5jmYcz8lxXJGJKZmdvE-33" target="J5jmYcz8lxXJGJKZmdvE-37">
          <mxGeometry relative="1" as="geometry" />
        </mxCell>
        <mxCell id="J5jmYcz8lxXJGJKZmdvE-33" value="调用 snap 方法获取结果" style="rounded=1;whiteSpace=wrap;html=1;absoluteArcSize=1;arcSize=14;strokeWidth=2;sketch=1;fontFamily=Comic Sans MS;fontColor=#46495D;fillColor=#B2C9AB;" vertex="1" parent="w4QYVPqzio85C-e9bdqR-1">
          <mxGeometry x="730" y="540" width="170" height="60" as="geometry" />
        </mxCell>
        <mxCell id="J5jmYcz8lxXJGJKZmdvE-34" style="edgeStyle=orthogonalEdgeStyle;rounded=0;orthogonalLoop=1;jettySize=auto;html=1;exitX=0.5;exitY=1;exitDx=0;exitDy=0;entryX=0.5;entryY=0;entryDx=0;entryDy=0;entryPerimeter=0;" edge="1" parent="w4QYVPqzio85C-e9bdqR-1" source="J5jmYcz8lxXJGJKZmdvE-35" target="J5jmYcz8lxXJGJKZmdvE-38">
          <mxGeometry relative="1" as="geometry" />
        </mxCell>
        <mxCell id="J5jmYcz8lxXJGJKZmdvE-35" value="更新已有的 calculator 中相关数据" style="rounded=1;whiteSpace=wrap;html=1;absoluteArcSize=1;arcSize=14;strokeWidth=2;sketch=1;fontFamily=Comic Sans MS;fontColor=#46495D;fillColor=#B2C9AB;" vertex="1" parent="w4QYVPqzio85C-e9bdqR-1">
          <mxGeometry x="1250" y="540" width="170" height="60" as="geometry" />
        </mxCell>
        <mxCell id="J5jmYcz8lxXJGJKZmdvE-36" style="edgeStyle=orthogonalEdgeStyle;rounded=0;orthogonalLoop=1;jettySize=auto;html=1;exitX=0.5;exitY=1;exitDx=0;exitDy=0;entryX=0.5;entryY=0;entryDx=0;entryDy=0;entryPerimeter=0;" edge="1" parent="w4QYVPqzio85C-e9bdqR-1" source="J5jmYcz8lxXJGJKZmdvE-37" target="J5jmYcz8lxXJGJKZmdvE-38">
          <mxGeometry relative="1" as="geometry" />
        </mxCell>
        <mxCell id="J5jmYcz8lxXJGJKZmdvE-37" value="如果有结果，调用 renderer 完成 UI 绘制" style="rounded=1;whiteSpace=wrap;html=1;absoluteArcSize=1;arcSize=14;strokeWidth=2;sketch=1;fontFamily=Comic Sans MS;fontColor=#46495D;fillColor=#B2C9AB;" vertex="1" parent="w4QYVPqzio85C-e9bdqR-1">
          <mxGeometry x="730" y="660" width="170" height="60" as="geometry" />
        </mxCell>
        <mxCell id="J5jmYcz8lxXJGJKZmdvE-38" value="完成" style="strokeWidth=2;html=1;shape=mxgraph.flowchart.terminator;whiteSpace=wrap;rounded=1;sketch=1;fontFamily=Comic Sans MS;fontColor=#46495D;fillColor=#B2C9AB;" vertex="1" parent="w4QYVPqzio85C-e9bdqR-1">
          <mxGeometry x="1025" y="800" width="100" height="60" as="geometry" />
        </mxCell>
        <mxCell id="J5jmYcz8lxXJGJKZmdvE-39" style="edgeStyle=orthogonalEdgeStyle;rounded=0;orthogonalLoop=1;jettySize=auto;html=1;exitX=0.5;exitY=1;exitDx=0;exitDy=0;entryX=0.5;entryY=0;entryDx=0;entryDy=0;entryPerimeter=0;" edge="1" parent="w4QYVPqzio85C-e9bdqR-1" source="J5jmYcz8lxXJGJKZmdvE-40" target="J5jmYcz8lxXJGJKZmdvE-15">
          <mxGeometry relative="1" as="geometry" />
        </mxCell>
        <mxCell id="J5jmYcz8lxXJGJKZmdvE-40" value="撤销重做时更新 SnapRefers" style="rounded=1;whiteSpace=wrap;html=1;absoluteArcSize=1;arcSize=14;strokeWidth=2;sketch=1;fontFamily=Comic Sans MS;fontColor=#46495D;fillColor=#B2C9AB;" vertex="1" parent="w4QYVPqzio85C-e9bdqR-1">
          <mxGeometry x="255" y="470" width="170" height="60" as="geometry" />
        </mxCell>
        <mxCell id="J5jmYcz8lxXJGJKZmdvE-41" style="edgeStyle=orthogonalEdgeStyle;rounded=0;orthogonalLoop=1;jettySize=auto;html=1;exitX=0.5;exitY=1;exitDx=0;exitDy=0;entryX=0.5;entryY=0;entryDx=0;entryDy=0;entryPerimeter=0;" edge="1" parent="w4QYVPqzio85C-e9bdqR-1" source="J5jmYcz8lxXJGJKZmdvE-42" target="J5jmYcz8lxXJGJKZmdvE-38">
          <mxGeometry relative="1" as="geometry" />
        </mxCell>
        <mxCell id="J5jmYcz8lxXJGJKZmdvE-42" value="撤销重做时更新 SnapRefers" style="rounded=1;whiteSpace=wrap;html=1;absoluteArcSize=1;arcSize=14;strokeWidth=2;sketch=1;fontFamily=Comic Sans MS;fontColor=#46495D;fillColor=#B2C9AB;" vertex="1" parent="w4QYVPqzio85C-e9bdqR-1">
          <mxGeometry x="990" y="540" width="170" height="60" as="geometry" />
        </mxCell>
      </root>
    </mxGraphModel>
  </diagram>
</mxfile>
